<svg xmlns="http://www.w3.org/2000/svg" width="19" height="19" viewBox="0 0 19 19">
  <path fill="#AEAFAF" fill-rule="evenodd" d="M7.9156,0.9995 C10.0306,0.9995 12.0176,1.8235 13.5136,3.3185 C15.0086,4.8135 15.8316,6.8015 15.8316,8.9165 C15.8316,10.9005 15.1066,12.7735 13.7806,14.2325 L13.7806,14.2325 L13.7846,14.2355 L18.8246,19.2755 C18.9766,19.4275 18.9766,19.6725 18.8246,19.8245 C18.7486,19.9005 18.6496,19.9385 18.5496,19.9385 C18.4506,19.9385 18.3516,19.9005 18.2756,19.8245 L18.2756,19.8245 L13.2341,14.7825 L13.2341,14.7825 C11.7736,16.1055 9.9006,16.8315 7.9166,16.8315 C5.8016,16.8315 3.8136,16.0075 2.3186,14.5125 C0.8236,13.0175 -0.000399999999,11.0305 -0.000399999999,8.9155 C-0.000399999999,6.8015 0.8236,4.8135 2.3186,3.3185 C3.8136,1.8235 5.8016,0.9995 7.9156,0.9995 Z M7.9156,1.7765 C6.0096,1.7765 4.2166,2.5195 2.8676,3.8675 C1.5186,5.2165 0.7766,7.0085 0.7766,8.9155 C0.7766,10.8225 1.5196,12.6155 2.8676,13.9635 C4.2166,15.3125 6.0096,16.0545 7.9166,16.0545 C9.8236,16.0545 11.6156,15.3125 12.9646,13.9635 C14.3126,12.6155 15.0556,10.8235 15.0556,8.9165 C15.0556,7.0095 14.3126,5.2165 12.9646,3.8675 C11.6156,2.5195 9.8226,1.7765 7.9156,1.7765 Z M8.91677969,4.51747227 L8.9946,4.5284 C9.7926,4.7234 10.5246,5.1354 11.1106,5.7214 C11.9636,6.5744 12.4336,7.7084 12.4336,8.9164 C12.4336,9.1304 12.2596,9.3044 12.0456,9.3044 C11.8306,9.3044 11.6566,9.1304 11.6566,8.9164 C11.6566,7.9164 11.2676,6.9764 10.5616,6.2704 C10.0756,5.7854 9.4706,5.4444 8.8106,5.2834 C8.6026,5.2324 8.4746,5.0214 8.5256,4.8134 C8.5756,4.6054 8.7866,4.4774 8.9946,4.5284 Z" transform="translate(0 -1)"/>
</svg>
